<svg id="e0gLzBaCymS1" xmlns="http://www.w3.org/2000/svg" xmlns:xlink="http://www.w3.org/1999/xlink" viewBox="0 0 500 500" shape-rendering="geometricPrecision" text-rendering="geometricPrecision" style="background-color:transparent"><polygon points="0,-50.000002 1.451493,-18.442971 7.821724,-49.384419 4.318739,-17.988844 15.45085,-47.552828 7.079644,-17.091772 22.699526,-44.550328 9.666224,-15.773844 29.389264,-40.450851 12.014789,-14.067511 35.35534,-35.35534 14.067511,-12.014789 40.450851,-29.389264 15.773844,-9.666224 44.550328,-22.699526 17.091772,-7.079644 47.552828,-15.45085 17.988844,-4.318739 49.384419,-7.821724 18.442971,-1.451493 50.000002,0 18.442971,1.451493 49.384419,7.821724 17.988844,4.318739 47.552828,15.45085 17.091772,7.079644 44.550328,22.699526 15.773844,9.666224 40.450851,29.389264 14.067511,12.014789 35.35534,35.35534 12.014789,14.067511 29.389264,40.450851 9.666224,15.773844 22.699526,44.550328 7.079644,17.091772 15.45085,47.552828 4.318739,17.988844 7.821724,49.384419 1.451493,18.442971 0,50.000002 -1.451493,18.442971 -7.821724,49.384419 -4.318739,17.988844 -15.45085,47.552828 -7.079644,17.091772 -22.699526,44.550328 -9.666224,15.773844 -29.389264,40.450851 -12.014789,14.067511 -35.35534,35.35534 -14.067511,12.014789 -40.450851,29.389264 -15.773844,9.666224 -44.550328,22.699526 -17.091772,7.079644 -47.552828,15.45085 -17.988844,4.318739 -49.384419,7.821724 -18.442971,1.451493 -50.000002,0 -18.442971,-1.451493 -49.384419,-7.821724 -17.988844,-4.318739 -47.552828,-15.45085 -17.091772,-7.079644 -44.550328,-22.699526 -15.773844,-9.666224 -40.450851,-29.389264 -14.067511,-12.014789 -35.35534,-35.35534 -12.014789,-14.067511 -29.389264,-40.450851 -9.666224,-15.773844 -22.699526,-44.550328 -7.079644,-17.091772 -15.45085,-47.552828 -4.318739,-17.988844 -7.821724,-49.384419 -1.451493,-18.442971 0,-50.000002" transform="matrix(4.071634 0 0 3.920561 250 268.719014)" fill="#cf3131" stroke-width="0"/></svg>
